# xmcd
#
# Track frame offsets:
#	150
#	19220
#	30227
#	48890
#	67381
#	83029
#	103878
#	117955
#	138588
#	151375
#	168664
#	188683
#
# Disc length: 2811 seconds
#
# Revision: 1
# Processed by: cddbd v1.5.2PL0 Copyright (c) Steve Scherf et al.
# Submitted via: audiograbber 1.83.01
#
DISCID=a00af90c
DTITLE=Various Artist - How Great Thou Art: Gospel Favorites Live From The Gra
DTITLE=nd Ole Opry
DYEAR=2008
DGENRE=Country
TTITLE0=I'll Fly Away (with Mac Powell) - The Charlie Daniels Band
TTITLE1=Blessed Assurance - Alan Jackson
TTITLE2=Precious Memories - Patty Loveless
TTITLE3=Precious Lord, Take My Hand - Ronnie Milsap
TTITLE4=Family Bible - Ricky Skaggs And The Whites
TTITLE5=Just A Closer Walk With Thee - Sara Evans
TTITLE6=The Old Rugged Cross - Brad Paisley
TTITLE7=Wayfaring Stranger  - Trace Adkins
TTITLE8=Where No One Stands Alone - Loretta Lynn
TTITLE9=Give Me Jesus - Vince Gill
TTITLE10=A House Of Gold - Dierks Bentley
TTITLE11=How Great Thou Art - Carrie Underwood
EXTD=Spelling
EXTT0=
EXTT1=
EXTT2=
EXTT3=
EXTT4=
EXTT5=
EXTT6=
EXTT7=
EXTT8=
EXTT9=
EXTT10=
EXTT11=
PLAYORDER=
